<svg width="24" height="24" viewBox="0 0 24 24" fill="none" xmlns="http://www.w3.org/2000/svg">
<path d="M21.75 6.75002H15C14.4178 6.75002 13.8437 6.88557 13.3229 7.14592C12.8022 7.40627 12.3493 7.78429 12 8.25002C11.6507 7.78429 11.1978 7.40627 10.6771 7.14592C10.1563 6.88557 9.58217 6.75002 9 6.75002H2.25C2.05109 6.75002 1.86032 6.82904 1.71967 6.96969C1.57902 7.11034 1.5 7.30111 1.5 7.50002V18.75C1.5 18.9489 1.57902 19.1397 1.71967 19.2804C1.86032 19.421 2.05109 19.5 2.25 19.5H9C9.59674 19.5 10.169 19.7371 10.591 20.159C11.0129 20.581 11.25 21.1533 11.25 21.75C11.25 21.9489 11.329 22.1397 11.4697 22.2804C11.6103 22.421 11.8011 22.5 12 22.5C12.1989 22.5 12.3897 22.421 12.5303 22.2804C12.671 22.1397 12.75 21.9489 12.75 21.75C12.75 21.1533 12.9871 20.581 13.409 20.159C13.831 19.7371 14.4033 19.5 15 19.5H21.75C21.9489 19.5 22.1397 19.421 22.2803 19.2804C22.421 19.1397 22.5 18.9489 22.5 18.75V7.50002C22.5 7.30111 22.421 7.11034 22.2803 6.96969C22.1397 6.82904 21.9489 6.75002 21.75 6.75002ZM9 18H3V8.25002H9C9.59674 8.25002 10.169 8.48707 10.591 8.90903C11.0129 9.33099 11.25 9.90329 11.25 10.5V18.75C10.6015 18.262 9.8116 17.9987 9 18ZM21 18H15C14.1884 17.9987 13.3985 18.262 12.75 18.75V10.5C12.75 9.90329 12.9871 9.33099 13.409 8.90903C13.831 8.48707 14.4033 8.25002 15 8.25002H21V18ZM8.4 4.04908C8.81916 3.4902 9.36269 3.03659 9.98754 2.72416C10.6124 2.41174 11.3014 2.24908 12 2.24908C12.6986 2.24908 13.3876 2.41174 14.0125 2.72416C14.6373 3.03659 15.1808 3.4902 15.6 4.04908C15.7196 4.20809 15.7711 4.40809 15.7433 4.60509C15.7154 4.80209 15.6104 4.97996 15.4514 5.09955C15.2924 5.21915 15.0924 5.27068 14.8954 5.24282C14.6984 5.21495 14.5205 5.10997 14.4009 4.95096C14.1215 4.57801 13.7591 4.27529 13.3423 4.06678C12.9256 3.85827 12.466 3.74971 12 3.74971C11.534 3.74971 11.0744 3.85827 10.6577 4.06678C10.2409 4.27529 9.87847 4.57801 9.59906 4.95096C9.53984 5.02969 9.4657 5.09599 9.38086 5.14606C9.29602 5.19614 9.20215 5.22902 9.1046 5.24282C9.00706 5.25661 8.90775 5.25106 8.81235 5.22648C8.71695 5.2019 8.62733 5.15877 8.54859 5.09955C8.46986 5.04034 8.40357 4.96619 8.35349 4.88135C8.30341 4.79651 8.27054 4.70264 8.25674 4.60509C8.24294 4.50755 8.24849 4.40824 8.27307 4.31284C8.29765 4.21744 8.34078 4.12782 8.4 4.04908Z" fill="#0E0C0F"/>
</svg>
