<svg width="24" height="24" viewBox="0 0 24 24" fill="none" xmlns="http://www.w3.org/2000/svg">
<path d="M20.1751 10.7722L5.23351 2.22236C5.01569 2.09534 4.76806 2.02841 4.5159 2.02841C4.26375 2.02841 4.01612 2.09534 3.7983 2.22236C3.58369 2.34542 3.40564 2.52329 3.28236 2.73777C3.15909 2.95225 3.09502 3.19563 3.09671 3.44301V20.5606C3.09601 20.8077 3.16091 21.0506 3.2848 21.2644C3.40869 21.4782 3.58711 21.6553 3.80186 21.7776C4.01968 21.9047 4.26731 21.9716 4.51946 21.9716C4.77162 21.9716 5.01925 21.9047 5.23707 21.7776L20.1751 13.2304C20.3955 13.1096 20.5794 12.9317 20.7075 12.7154C20.8356 12.499 20.9031 12.2523 20.9031 12.0009C20.9031 11.7495 20.8356 11.5027 20.7075 11.2864C20.5794 11.0701 20.3955 10.8922 20.1751 10.7713V10.7722ZM4.52125 19.5402V4.46333L12.0615 12.0018L4.52125 19.5402ZM13.0684 13.0087L14.753 14.6933L6.87351 19.2037L13.0684 13.0087ZM6.87173 4.79899L14.7538 9.3103L13.0684 10.9948L6.87173 4.79899ZM16.0341 13.9605L14.0754 12.0018L16.0341 10.043L19.4557 12.0018L16.0341 13.9605Z" fill="black"/>
</svg>
